<svg xmlns="http://www.w3.org/2000/svg" width="250" height="250" viewBox="0 0 250 250">
<!-- SVG created with Arrow, by QuiverAI (https://quiver.ai) -->
  <rect width="250" height="250" fill="#FEFFFE" fill-opacity=".000446"/>
  <path d="m179 104.1v-28.05c0-29.28-22.68-57.05-55.7-57.05h-0.61c-29.57 0-52.88 28.26-52.88 54.91v29.31c-12.43 13.75-19.81 32.24-19.81 51.75 0 37.02 31.22 74.02 73.76 74.02 41.26 0 75.25-35.24 75.25-74.71 0-18.66-8.19-37.37-20.01-50.18zm-99.05-30.19c0-21.73 19.77-44.98 42.74-44.98h0.61c27.44 0 45.56 22.53 45.56 47.12v19.77c-12.74-10.64-27.09-15.76-43.93-15.76-17.31 0-31.7 5.65-44.01 15.4l-0.97 0.78v-22.33zm43.81 145.2c-34.94 0-63.62-31.45-63.62-64.09 0-32.26 26.78-64.98 64.79-64.98 34.89 0 63.94 32.22 63.94 64.29 0 33.43-28.68 64.78-65.11 64.78z" fill="#FEFEFE"/>
  <path d="m124 139.2c-9.27 0-14.31 7.93-14.31 15.72 0 7.14 5.29 11.97 10.55 14.19v10.71c0 2.79 1.91 4.4 4.12 4.4 2.22 0 4.52-1.66 4.52-4.4v-11.17c6.71-1.7 10-9.63 10-14.28 0-7.24-7.99-15.17-14.88-15.17z" fill="#FEFEFE"/>
</svg>