<svg xmlns="http://www.w3.org/2000/svg" viewBox="0 0 64 64">
<!-- SVG created with Arrow, by QuiverAI (https://quiver.ai) -->
  <style type="text/css">.cls-0 {fill:#333333;}
.cls-1 {fill:#FFFFFF;}</style>
  <circle class="cls-0" cx="32" cy="32" r="32"/>
  <path class="cls-1" d="m46.4 26.6v-8.6c0-6.7-5.6-13.1-14.4-13.1-8.3 0-14.4 6.3-14.4 13.1v8.6c-3.1 3.4-5.2 7.7-5.2 12.9 0 10.3 7.5 19.5 19.6 19.5 11.2 0 19.5-8.3 19.5-19.5 0-4.5-2-9.5-5.1-12.9zm-14.4-19.1c5.9 0 11.5 4.5 11.5 11.3v5.4c-2.6-2.2-5.8-4.1-11.5-4.1-4.3 0-8 1.1-11.6 4.1v-5.2c0-6.4 4.7-11.5 11.6-11.5zm0 49.1c-8.6 0-16.7-6.9-16.7-16.9 0-7.6 6.2-16.6 16.7-16.6s16.7 7.7 16.6 16.5c0 8.7-6.9 17-16.6 17z"/>
  <path class="cls-1" d="m32 35.4c-2.3 0-4.5 1.7-4.5 4.2 0 1.7 1 3.3 2.4 4v3.2l2 1.3 2-0.9v-3.4c1.5-0.6 2.7-2.3 2.7-4.2 0-2.3-1.9-4.2-4.6-4.2z"/>
  <path class="cls-0" d="m32 23.8c-9.2 0-16.4 6.8-16.1 15.8 0.2 9 6.9 16.3 16.1 16.7 8.6 0.3 16.1-6.9 16.1-16.3s-7-16.2-16.1-16.2zm1.3 19.5v3.5l-1.4 0.9-1.3-0.9v-3.5c-1.3-0.4-2.5-1.8-2.5-3.7 0-2 1.6-3.7 3.9-3.7s3.8 1.5 3.8 3.7c0 1.7-0.8 3.1-2.5 3.7z"/>
  <path class="cls-0" d="m21.2 22.6c2.8-1.9 5.9-3.5 10.9-3.5 3.8 0 7.5 0.9 11.4 3.5v-4.2c0-5.7-4.6-10.1-11.3-10.1-6 0-11.3 4.3-11.3 10.5l-0.5 3.8z"/>
</svg>